<svg width="83" height="123" viewBox="0 0 83 123" fill="none" xmlns="http://www.w3.org/2000/svg">
<path fill-rule="evenodd" clip-rule="evenodd" d="M23.2137 0C10.6728 0 0.586843 10.5216 0.586843 23.411C0.586843 31.2471 4.31784 38.2069 10.0527 42.4555C7.09703 44.6699 4.70124 47.546 3.05742 50.8533C1.4136 54.1605 0.567466 57.8068 0.586843 61.5C0.586843 69.3412 4.31784 76.2959 10.0527 80.5445C7.09703 82.7589 4.70124 85.635 3.05742 88.9423C1.4136 92.2495 0.567466 95.8958 0.586843 99.589C0.586843 112.478 10.6728 123 23.2137 123C35.7495 123 45.8406 112.478 45.8406 99.589V79.7962C49.8039 83.1008 54.7997 84.9124 59.96 84.9161C72.5008 84.911 82.5868 74.3894 82.5868 61.5C82.5868 53.6588 78.861 46.7041 73.121 42.4555C76.0767 40.2411 78.4724 37.365 80.1163 34.0577C81.7601 30.7505 82.6062 27.1042 82.5868 23.411C82.5868 10.5216 72.5008 0 59.96 0H23.2137V0ZM9.08922 23.411C9.08922 15.2571 15.4545 8.72787 23.2137 8.72787H37.3331V38.0941H23.2137C15.4545 38.0941 9.08922 31.5597 9.08922 23.411V23.411ZM59.96 38.089H45.8406V8.72275H59.96C67.7243 8.72275 74.0845 15.2571 74.0845 23.411C74.0845 31.5597 67.7243 38.089 59.96 38.089ZM9.09434 61.5C9.09434 53.3512 15.4596 46.8169 23.2188 46.8169H37.3382V76.1831H23.2137C15.4493 76.1831 9.08922 69.6488 9.08922 61.5H9.09434ZM45.8406 61.5C45.8406 53.3512 52.2058 46.8169 59.9651 46.8169C67.7295 46.8169 74.0896 53.3461 74.0896 61.5C74.0896 69.6488 67.7295 76.1831 59.9651 76.1831C52.2058 76.1831 45.8457 69.6539 45.8457 61.5H45.8406ZM9.09434 99.589C9.09434 91.4402 15.4596 84.911 23.2188 84.911H37.3382V99.589C37.3382 107.743 30.9832 114.272 23.2188 114.272C15.4596 114.272 9.09434 107.743 9.09434 99.589Z" fill="white"/>
</svg>
