<svg width="123" height="123" viewBox="0 0 123 123" fill="none" xmlns="http://www.w3.org/2000/svg">
<path d="M120.677 56.0142L66.9752 2.31517C65.4859 0.83243 63.4701 0 61.3688 0C59.2675 0 57.2517 0.83243 55.7624 2.31517L44.6358 13.4561L58.7763 27.6052C60.4446 27.0414 62.2376 26.9564 63.9518 27.36C65.666 27.7636 67.2328 28.6396 68.4745 29.8885C69.7162 31.1375 70.5831 32.7095 70.9769 34.4263C71.3707 36.143 71.2757 37.9358 70.7025 39.6012L84.3202 53.2397C86.3363 52.5322 88.5332 52.5319 90.5495 53.2389C92.5659 53.946 94.2816 55.3182 95.4146 57.1301C96.5476 58.9419 97.0304 61.0854 96.7836 63.2082C96.5369 65.3309 95.5752 67.3064 94.0568 68.8099C90.3725 72.501 84.4248 72.501 80.7343 68.8099C79.4235 67.4974 78.5279 65.828 78.1593 64.0098C77.7907 62.1917 77.9654 60.3052 78.6615 58.5856L65.905 45.8945V79.3418C66.803 79.7786 67.6641 80.3815 68.4083 81.1258C70.1669 82.8971 71.1538 85.292 71.1538 87.7882C71.1538 90.2844 70.1669 92.6794 68.4083 94.4506C67.5308 95.3297 66.4886 96.0271 65.3414 96.5029C64.1942 96.9787 62.9644 97.2236 61.7225 97.2236C60.4805 97.2236 59.2507 96.9787 58.1035 96.5029C56.9563 96.0271 55.9141 95.3297 55.0366 94.4506C54.1611 93.5774 53.4664 92.54 52.9924 91.3978C52.5184 90.2556 52.2744 89.031 52.2744 87.7944C52.2744 86.5577 52.5184 85.3332 52.9924 84.191C53.4664 83.0488 54.1611 82.0113 55.0366 81.1381C55.9715 80.2154 57.0172 79.5141 58.1366 79.0527V45.2793C56.9866 44.8084 55.9413 44.1142 55.0611 43.2368C54.1809 42.3594 53.4833 41.3163 53.0086 40.1676C52.5339 39.019 52.2915 37.7877 52.2954 36.5448C52.2994 35.3019 52.5495 34.0721 53.0315 32.9265L39.1309 18.9558L2.30652 55.7558C-0.76884 58.8563 -0.76884 63.8762 2.30652 66.9767L56.0084 120.676C56.7432 121.412 57.6161 121.997 58.577 122.396C59.538 122.795 60.5682 123 61.6087 123C62.6491 123 63.6793 122.795 64.6403 122.396C65.6013 121.997 66.4741 121.412 67.2089 120.676L120.659 67.2228C121.399 66.4898 121.987 65.6176 122.389 64.6565C122.791 63.6953 122.998 62.6641 123 61.6223C123.002 60.5805 122.797 59.5487 122.399 58.5862C122 57.6237 121.415 56.7496 120.677 56.0142" fill="white"/>
</svg>
