<svg width="123" height="123" viewBox="0 0 123 123" fill="none" xmlns="http://www.w3.org/2000/svg">
<path fill-rule="evenodd" clip-rule="evenodd" d="M0 0H123V123H0V0ZM94.0284 103.115C88.3243 103.115 85.1006 100.143 82.6252 96.0938L73.2311 101.552C76.6239 108.255 83.558 113.37 94.2949 113.37C105.273 113.37 113.447 107.671 113.447 97.2623C113.447 87.6119 107.902 83.3223 98.0823 79.1044L95.1917 77.8693C90.2307 75.7168 88.0834 74.3176 88.0834 70.848C88.0834 68.0446 90.2359 65.8972 93.6184 65.8972C96.9343 65.8972 99.0714 67.2964 101.055 70.848L110.054 65.0721C106.246 58.3737 100.968 55.8164 93.6184 55.8164C83.2966 55.8164 76.6905 62.4174 76.6905 71.0889C76.6905 80.4933 82.2255 84.9469 90.569 88.4985L93.4595 89.7388C98.7331 92.045 101.875 93.4492 101.875 97.4109C101.875 100.722 98.8151 103.115 94.0284 103.115V103.115ZM49.2359 103.038C45.264 103.038 43.6086 100.322 41.7944 97.0931L32.3849 102.792C35.1114 108.563 40.4721 113.35 49.7227 113.35C59.9676 113.35 66.9837 107.902 66.9837 95.9349V56.4724H55.4269V95.7811C55.4269 101.557 53.0284 103.038 49.2307 103.038H49.2359Z" fill="white"/>
</svg>
