<svg width="123" height="123" viewBox="0 0 123 123" fill="none" xmlns="http://www.w3.org/2000/svg">
<path fill-rule="evenodd" clip-rule="evenodd" d="M1.52106e-06 10.2761C1.52106e-06 7.55072 1.08266 4.93695 3.0098 3.00981C4.93694 1.08267 7.5507 1.36995e-05 10.2761 1.36995e-05H112.713C114.063 -0.0021922 115.401 0.26202 116.65 0.777523C117.898 1.29303 119.032 2.0497 119.988 3.00421C120.943 3.95873 121.701 5.09234 122.218 6.34016C122.735 7.58797 123.001 8.92548 123 10.2761V112.713C123.001 114.064 122.737 115.402 122.22 116.65C121.704 117.898 120.947 119.033 119.992 119.988C119.037 120.944 117.903 121.702 116.655 122.218C115.407 122.735 114.069 123.001 112.718 123H10.2761C8.92615 123 7.58943 122.734 6.34231 122.217C5.09519 121.7 3.96212 120.943 3.00782 119.988C2.05352 119.033 1.29671 117.9 0.780617 116.653C0.264524 115.405 -0.000732944 114.068 1.52106e-06 112.718V10.2761ZM48.6856 46.8966H65.3409V55.2606C67.745 50.4524 73.895 46.125 83.1368 46.125C100.854 46.125 105.053 55.7022 105.053 73.2745V105.825H87.1231V77.2776C87.1231 67.2698 84.719 61.623 78.6138 61.623C70.1435 61.623 66.6213 67.7115 66.6213 77.2776V105.825H48.6856V46.8966ZM17.9356 105.059H35.8713V46.125H17.9356V105.053V105.059ZM38.4375 26.9035C38.4713 28.4391 38.1981 29.9661 37.6337 31.3947C37.0694 32.8234 36.2255 34.1249 35.1513 35.2229C34.0772 36.321 32.7946 37.1934 31.3787 37.789C29.9629 38.3846 28.4423 38.6914 26.9062 38.6914C25.3702 38.6914 23.8496 38.3846 22.4338 37.789C21.0179 37.1934 19.7353 36.321 18.6612 35.2229C17.587 34.1249 16.7431 32.8234 16.1788 31.3947C15.6144 29.9661 15.3412 28.4391 15.375 26.9035C15.4414 23.8892 16.6854 21.0207 18.8407 18.9123C20.996 16.8039 23.8912 15.6233 26.9062 15.6233C29.9213 15.6233 32.8165 16.8039 34.9718 18.9123C37.1271 21.0207 38.3711 23.8892 38.4375 26.9035V26.9035Z" fill="white"/>
</svg>
