<svg width="124" height="124" viewBox="0 0 124 124" fill="none" xmlns="http://www.w3.org/2000/svg">
<path d="M116.542 0.375H7.20833C5.39602 0.375 3.65794 1.09494 2.37644 2.37644C1.09494 3.65794 0.375 5.39602 0.375 7.20833V116.542C0.375 118.354 1.09494 120.092 2.37644 121.374C3.65794 122.655 5.39602 123.375 7.20833 123.375H116.542C118.354 123.375 120.092 122.655 121.374 121.374C122.655 120.092 123.375 118.354 123.375 116.542V7.20833C123.375 5.39602 122.655 3.65794 121.374 2.37644C120.092 1.09494 118.354 0.375 116.542 0.375V0.375ZM102.561 29.5192L95.9597 35.84C95.6808 36.0526 95.4658 36.3379 95.338 36.6644C95.2103 36.991 95.1748 37.3464 95.2353 37.6918V84.1653C95.1748 84.5107 95.2103 84.8662 95.338 85.1927C95.4658 85.5193 95.6808 85.8045 95.9597 86.0172L102.397 92.3448V93.7388H69.9998V92.3448L76.676 85.8668C77.3388 85.2108 77.3388 85.0127 77.3388 84.015V46.4453L58.7795 93.568H56.2648L34.6647 46.4453V78.029C34.5794 78.6853 34.6432 79.3524 34.8514 79.9807C35.0597 80.6089 35.4069 81.1821 35.8673 81.6575L44.5525 92.1877V93.5748H19.9252V92.1877L28.6103 81.6575C29.0675 81.1822 29.4069 80.6064 29.6015 79.9763C29.7962 79.3462 29.8405 78.6793 29.731 78.029V41.5117C29.7821 41.0118 29.7147 40.5069 29.5342 40.038C29.3538 39.569 29.0653 39.1492 28.6923 38.8125L20.9707 29.5192V28.132H44.9283L63.4467 68.7425L79.7237 28.132H102.568V29.5192H102.561Z" fill="white"/>
</svg>
