<svg width="120" height="123" viewBox="0 0 120 123" fill="none" xmlns="http://www.w3.org/2000/svg">
<path d="M85.7435 0C80.96 0.0363984 76.2041 0.72967 71.6092 2.06038L71.2901 2.16417C68.3992 1.66331 65.4746 1.38189 62.5412 1.32233C56.4946 1.21854 51.3052 2.67926 47.123 5.12404C42.9984 3.7056 34.4493 1.21854 25.439 1.72211C19.1772 2.06038 12.3272 3.96315 7.23775 9.32936C2.19444 14.6763 -0.484822 22.964 0.0725562 34.2576C0.23016 37.3597 1.11428 42.4223 2.59421 49.007C4.05493 55.5764 6.11915 63.2644 8.70231 70.2912C11.2855 77.2988 14.1031 83.6029 18.5122 87.8851C20.7109 90.0262 23.7554 91.8521 27.338 91.6945C29.8442 91.5907 32.1045 90.4913 34.0688 88.8692C35.0259 90.13 36.0523 90.6682 36.971 91.1717C38.1549 91.8137 39.2735 92.2519 40.4575 92.5363C42.5794 93.0745 46.2043 93.7779 50.448 93.0553C51.9933 92.7772 53.4995 92.3138 54.934 91.6753L55.1146 96.6994C55.3337 102.004 55.4798 106.909 57.0558 111.214C57.3172 111.918 58.0207 115.52 60.7807 118.722C63.5637 121.924 68.9645 123.907 75.1533 122.585C79.5009 121.662 85.0439 119.982 88.7303 114.739C92.3744 109.573 94.0158 102.146 94.3387 90.0916C94.4156 89.4304 94.5193 88.8922 94.6154 88.3694L95.4765 88.4502H95.5803C100.224 88.6501 105.271 87.9889 109.496 86.0246C113.217 84.3025 116.042 82.5612 118.102 79.4591C118.606 78.6941 119.182 77.7562 119.328 76.1533C119.486 74.5734 118.564 72.0671 117.041 70.9101C114.001 68.5883 112.079 69.4686 110.014 69.9106C107.993 70.3462 105.935 70.5933 103.868 70.6487C109.792 60.6812 114.035 50.0718 116.461 40.6963C117.902 35.1494 118.706 30.0446 118.763 25.5817C118.844 21.1189 118.467 17.1749 115.8 13.7538C107.431 3.08288 95.6764 0.11532 86.5892 0.0192199H85.7474L85.7435 0ZM85.5014 3.28661C94.0927 3.20589 105.079 5.60838 112.967 15.695C114.75 17.9591 115.273 21.2611 115.212 25.3473C115.15 29.4334 114.393 34.2961 113.009 39.643C110.349 50.018 105.279 62.065 98.175 72.9012C98.4194 73.0854 98.6886 73.2343 98.9745 73.3433C100.454 73.9622 103.837 74.4811 110.603 73.1011C112.305 72.7359 113.551 72.5015 114.85 73.4817C115.166 73.7476 115.415 74.0834 115.577 74.4625C115.74 74.8415 115.812 75.2533 115.788 75.6651C115.718 76.2893 115.483 76.8837 115.108 77.3872C113.805 79.3438 111.229 81.2119 107.923 82.7534C105.002 84.1103 100.793 84.8138 97.0948 84.856C95.2151 84.8753 93.493 84.733 92.0246 84.2718L91.9477 84.2564C91.3827 89.6802 90.0872 100.413 89.2416 105.295C88.565 109.235 87.3811 112.383 85.1208 114.724C82.8567 117.088 79.6739 118.487 75.3686 119.41C70.0447 120.551 66.1776 119.329 63.679 117.226C61.1804 115.124 60.0349 112.321 59.3545 110.618C58.8779 109.438 58.6357 107.916 58.3974 105.871C58.1357 103.43 57.9614 100.979 57.8746 98.5253C57.717 94.22 57.6555 89.9147 57.717 85.5902C55.496 87.6266 52.7368 88.9822 49.7676 89.4957C46.2273 90.0954 43.0829 89.4957 41.2032 89.0345C40.2759 88.7979 39.3812 88.448 38.5393 87.9927C37.6591 87.5315 36.8365 87.0125 36.2791 85.967C35.9579 85.3682 35.8585 84.6752 35.9985 84.0104C36.1647 83.335 36.5532 82.7352 37.1017 82.3075C38.1204 81.481 39.4657 81.0274 41.4838 80.6046C45.1702 79.8396 46.4695 79.3245 47.2498 78.698C47.911 78.179 48.6759 77.0989 49.9906 75.5151C49.9906 75.4575 49.9906 75.3768 49.9714 75.3153C47.5893 75.2427 45.2575 74.6121 43.1637 73.474C42.4064 74.2735 38.4586 78.4404 33.6767 84.2064C31.674 86.6051 29.4522 87.9889 27.0919 88.0927C24.751 88.1888 22.6214 87.0125 20.8224 85.2673C17.2206 81.7616 14.3338 75.7343 11.8313 68.9266C9.32888 62.1188 7.30694 54.5347 5.84623 48.0883C4.40473 41.6189 3.54368 36.4141 3.42067 33.9117C2.88251 23.2408 5.38495 16.0563 9.66715 11.5089C13.9494 6.96146 19.8191 5.26242 25.5467 4.92415C35.8178 4.34371 45.5854 7.9263 47.5497 8.68741C51.3514 6.10425 56.2563 4.50515 62.3836 4.60125C65.2873 4.64396 68.1765 5.02058 70.9941 5.7237L71.0979 5.66219C72.3376 5.23285 73.6004 4.87351 74.8804 4.58588C78.3594 3.76943 81.9167 3.33251 85.4898 3.28277L85.5014 3.28661ZM86.2817 6.70776H85.5244C82.603 6.74236 79.6546 7.08831 76.7947 7.7072C83.1796 10.5325 88.0038 14.8724 91.4057 19.2392C93.7698 22.2413 95.711 25.5433 97.1909 29.0682C97.7752 30.4329 98.1558 31.5707 98.3557 32.4509C98.4748 32.893 98.5363 33.2697 98.5748 33.6503C98.5748 33.8502 98.594 34.0539 98.494 34.3922C98.494 34.4114 98.4748 34.4537 98.4748 34.4729C98.6401 38.9588 97.5177 41.9956 97.3716 46.2816C97.2755 49.3876 98.075 53.0317 98.2749 57.014C98.4556 60.7542 97.9982 64.8596 95.5726 68.9035C95.7725 69.1457 95.9532 69.384 96.153 69.6454C102.58 59.5126 107.224 48.3228 109.688 38.7705C111.01 33.6234 111.706 28.9606 111.767 25.2819C111.829 21.5955 111.148 18.9124 110.264 17.7938C103.376 9.00262 94.0696 6.75773 86.2778 6.70392L86.2817 6.70776ZM61.7148 8.02625C55.672 8.04547 51.3245 9.87136 48.0263 12.6121C44.6167 15.4567 42.3372 19.3199 40.8573 23.3023C39.0737 28.0073 38.4548 32.5701 38.2126 35.6761L38.2933 35.6338C40.4275 34.4387 42.7192 33.5497 45.101 32.993C47.665 32.3894 50.448 32.2088 52.9466 33.1928C55.4721 34.15 57.5325 36.4525 58.2936 39.916C61.9031 56.6143 57.175 62.8223 55.4337 67.5043C54.7725 69.2072 54.1921 70.9293 53.7308 72.6898C53.9499 72.6475 54.1728 72.586 54.392 72.5668C55.6336 72.4707 56.5907 72.8705 57.1558 73.1088C58.9202 73.8469 60.1195 75.3691 60.7807 77.1104C60.943 77.5857 61.0626 78.0746 61.1382 78.5711C61.2044 78.7788 61.2394 78.9951 61.2419 79.2131C61.0401 85.598 61.0594 91.9879 61.2996 98.3715C61.4226 101.135 61.6033 103.557 61.8224 105.479C62.0415 107.382 62.3413 108.843 62.5451 109.342C63.2024 110.984 64.1634 113.125 65.9085 114.585C67.6307 116.05 70.11 117.011 74.6575 116.05C78.5976 115.189 81.0231 114.024 82.6414 112.344C84.2674 110.642 85.2246 108.301 85.8435 104.718C86.7852 99.3325 88.6457 83.7144 88.8687 80.7929C88.7726 78.5673 89.0878 76.8682 89.8105 75.5651C90.5293 74.2428 91.6517 73.424 92.6358 72.982C93.1125 72.7629 93.5737 72.6245 93.9543 72.5015C93.5515 71.9397 93.1376 71.3861 92.7127 70.8409C91.3096 69.1385 90.1564 67.2449 89.2877 65.2171C88.8882 64.3668 88.4469 63.5367 87.9654 62.73C87.2888 61.5115 86.4278 59.9662 85.5244 58.2249C83.7216 54.7807 81.7612 50.5792 80.7387 46.493C79.72 42.4069 79.5816 38.1862 82.184 35.2225C84.4865 32.5778 88.5496 31.4823 94.6116 32.1011C94.4309 31.5591 94.3348 31.0979 94.0312 30.3983C92.6524 27.1599 90.8547 24.1164 88.6842 21.3457C83.5371 14.7609 75.1879 8.22998 62.3183 8.01087L61.7148 8.02625ZM27.6839 8.28764C27.0364 8.28695 26.3889 8.30747 25.7427 8.34914C20.5572 8.65282 15.6715 10.1481 12.1657 13.8537C8.66387 17.5786 6.36517 23.6444 6.86104 33.7156C6.96483 35.6376 7.7836 40.9615 9.20203 47.308C10.6281 53.6582 12.6462 61.1271 15.0718 67.7311C17.4897 74.3158 20.4188 80.0626 23.2211 82.7841C24.6203 84.1257 25.8388 84.6869 26.942 84.6485C28.0453 84.587 29.3868 83.945 31.0282 81.9846C34.0069 78.3905 37.099 74.892 40.2999 71.4943C38.0298 69.5182 36.2935 67.0025 35.2509 64.1791C34.2083 61.3557 33.893 58.3153 34.334 55.3381C34.853 51.5556 34.9337 48.0076 34.853 45.2053C34.7953 42.4838 34.6108 40.6848 34.6108 39.5431V39.4201L34.5916 39.3855C34.5916 33.4773 35.6371 27.6344 37.636 22.0876C39.0775 18.2589 41.2032 14.3996 44.4014 11.2514C41.2609 10.2096 35.6717 8.65282 29.629 8.34914C28.9828 8.30759 28.3353 8.28707 27.6878 8.28764H27.6839ZM91.2251 35.3532C87.7462 35.4147 85.8012 36.318 84.7633 37.475C83.318 39.1395 83.1796 42.0609 84.0829 45.6666C84.9786 49.2684 86.8468 53.2931 88.5881 56.6412C89.4491 58.321 90.291 59.824 90.9675 61.0425C91.671 62.2841 92.1707 63.1452 92.4705 63.9063C92.7511 64.5867 93.074 65.1864 93.3931 65.7476C94.7346 62.903 94.9768 60.12 94.8346 57.1985C94.6539 53.5967 93.8159 49.9103 93.9543 46.1894C94.0965 41.8226 94.9576 38.978 95.0191 35.6146C93.7636 35.4486 92.4991 35.3612 91.2327 35.3532H91.2251ZM49.0257 35.9605C47.9648 35.9605 46.9039 36.0989 45.8621 36.3411C43.7976 36.8376 41.81 37.6122 39.9539 38.6436C39.3293 38.9816 38.734 39.3712 38.1742 39.8083L38.0512 39.9044C38.0934 40.6694 38.2318 42.4684 38.2933 45.1515C38.3548 48.0729 38.2933 51.7939 37.736 55.8224C36.4943 64.5905 42.86 71.8403 50.3289 71.8595C50.7709 70.0567 51.4859 68.2308 52.2086 66.3126C54.2882 60.7043 58.3743 56.6219 54.9301 40.6463C54.3727 38.044 53.2503 36.983 51.705 36.3833C50.8451 36.0807 49.937 35.9387 49.0257 35.9644V35.9605ZM89.6067 36.9984H89.8681C90.1872 37.0176 90.5101 37.0407 90.7868 37.1176C91.0367 37.1665 91.2753 37.2616 91.4903 37.3982C91.5902 37.4581 91.6759 37.539 91.7416 37.6352C91.8073 37.7314 91.8514 37.8407 91.8708 37.9555V37.9978C91.8698 38.2437 91.8077 38.4854 91.6902 38.7013C91.5389 38.9774 91.3515 39.2321 91.1328 39.4585C90.6159 40.0364 89.9152 40.418 89.1493 40.5387C88.4082 40.6337 87.6584 40.4487 87.0466 40.0198C86.8043 39.844 86.5826 39.6415 86.3855 39.4163C86.2125 39.2343 86.0998 39.0034 86.0626 38.7551C86.04 38.5182 86.1119 38.282 86.2625 38.0978C86.4405 37.9158 86.6437 37.7605 86.866 37.6365C87.3618 37.3559 88.023 37.156 88.788 37.0522C89.0647 37.0176 89.3453 36.9945 89.6067 36.9753V36.9984ZM49.5216 37.8594C49.783 37.8594 50.0867 37.8787 50.3673 37.9171C51.1668 38.0401 51.8472 38.24 52.3854 38.559C52.6492 38.6876 52.8815 38.8726 53.0658 39.101C53.2654 39.3419 53.3658 39.6498 53.3464 39.9621C53.2917 40.2581 53.159 40.5341 52.962 40.7617C52.7512 41.0184 52.5023 41.2414 52.2239 41.4228C51.5579 41.9014 50.7348 42.1089 49.9214 42.0033C49.0974 41.8708 48.3426 41.4629 47.7803 40.8462C47.5442 40.5924 47.3414 40.3095 47.1768 40.0044C46.9974 39.7323 46.9198 39.4056 46.9577 39.0818C47.0384 38.5437 47.4997 38.24 47.9417 38.0824C48.4453 37.9171 48.9835 37.8633 49.5216 37.8825V37.8594ZM95.9532 75.4959H95.9339C95.1959 75.7765 94.577 75.8803 94.0542 76.1225C93.5251 76.3221 93.0902 76.7131 92.8357 77.218C92.4936 77.8023 92.236 78.844 92.3129 80.62C92.5441 80.7863 92.8032 80.91 93.0779 80.9851C93.9389 81.2465 95.4188 81.4272 97.0602 81.4041C100.324 81.3619 104.348 80.6046 106.49 79.6013C108.239 78.7904 109.864 77.7328 111.314 76.4608C104.168 77.9215 100.147 77.5409 97.6599 76.5223C97.0489 76.2579 96.4761 75.9127 95.957 75.4959H95.9532ZM54.7917 75.9764H54.6879C54.4112 75.9956 54.0268 76.0994 53.2464 76.9413C51.4628 78.9401 50.844 80.201 49.3832 81.3657C47.9033 82.5458 46.0005 83.1685 42.1758 83.9489C41.3599 84.0949 40.5657 84.3428 39.8117 84.6869C39.9501 84.8099 39.9501 84.8522 40.1692 84.9483C40.7343 85.2712 41.4492 85.5326 42.0335 85.6902C43.6749 86.09 46.3542 86.5705 49.1795 86.09C51.9818 85.6095 54.9032 84.2641 57.4095 80.766C57.8515 80.1664 57.8861 79.263 57.5286 78.302C57.1712 77.3641 56.387 76.5223 55.8488 76.3032C55.512 76.1464 55.1549 76.0377 54.7879 75.9803L54.7917 75.9764Z" fill="white"/>
</svg>
