<svg width="124" height="123" viewBox="0 0 124 123" fill="none" xmlns="http://www.w3.org/2000/svg">
<path d="M93.0308 89.5479V33.4435L55.8678 61.4957L93.0308 89.5479ZM1.486 44.5655C0.587036 43.6066 0.0767076 42.3491 0.053823 41.0364C0.0309384 39.7237 0.497125 38.4493 1.36212 37.4598L8.79472 30.6012C10.0335 29.489 13.0685 28.9947 15.2982 30.6012L36.4811 46.7281L85.5982 1.93114C87.5803 -0.0461091 90.9869 -0.849365 94.889 1.18967L119.664 12.9914C121.894 14.2889 124 16.328 124 20.0971V103.512C124 105.984 122.204 108.641 120.284 109.691L93.0308 122.667C91.0488 123.47 87.3325 122.729 86.0318 121.431L36.3573 76.325L15.2982 92.3902C12.9446 93.9967 10.0335 93.5641 8.79472 92.3902L1.36212 85.5934C-0.619907 83.5543 -0.372154 80.2177 1.67181 78.1787L20.2533 61.4957" fill="white"/>
</svg>
