<svg width="93" height="123" viewBox="0 0 93 123" fill="none" xmlns="http://www.w3.org/2000/svg">
<path d="M23.0728 0H36.285V5.52474H28.5975V11.0495H36.285V16.5742H23.0728V0Z" fill="white"/>
<path d="M38.9242 0H52.1415V4.80724H44.4541V5.76562H52.1415V16.8151H38.9242V11.7721H46.6117V10.8086H38.9242V0Z" fill="white"/>
<path d="M54.7862 0H67.9933V4.80724H60.3058V5.76562H67.9933V16.8151H54.7862V11.7721H62.4737V10.8086H54.7862V0Z" fill="white"/>
<path fill-rule="evenodd" clip-rule="evenodd" d="M46.0788 123L10.4909 113.119L0 24.1748H92.2499L81.7641 113.109L46.0788 123ZM20.7408 64.4367L21.7197 75.3427H59.5268L58.2609 89.4877L46.0942 92.778H46.0839L33.9377 89.498L33.1587 80.8008H22.2066L23.7338 97.9286L46.0788 104.13L68.4597 97.9286L71.1861 67.3631L71.4526 64.4367L73.4206 42.3532H18.778L19.7722 53.2643H61.4692L60.4749 64.4367H20.7408V64.4367Z" fill="white"/>
</svg>
