<svg width="154" height="123" viewBox="0 0 154 123" fill="none" xmlns="http://www.w3.org/2000/svg">
<path d="M138.375 0H15.375C6.91875 0 0.0768749 6.91875 0.0768749 15.375L0 107.625C0 116.081 6.91875 123 15.375 123H138.375C146.831 123 153.75 116.081 153.75 107.625V15.375C153.75 6.91875 146.831 0 138.375 0ZM135.3 32.6719L80.9494 66.6506C78.4894 68.1881 75.2606 68.1881 72.8006 66.6506L18.45 32.6719C17.6792 32.2392 17.0041 31.6545 16.4658 30.9534C15.9274 30.2522 15.5369 29.4491 15.3179 28.5927C15.0989 27.7362 15.056 26.8443 15.1917 25.9707C15.3274 25.0972 15.639 24.2603 16.1075 23.5107C16.576 22.7611 17.1917 22.1143 17.9175 21.6095C18.6432 21.1048 19.4638 20.7525 20.3296 20.574C21.1954 20.3956 22.0884 20.3947 22.9545 20.5714C23.8207 20.748 24.642 21.0986 25.3688 21.6019L76.875 53.8125L128.381 21.6019C129.108 21.0986 129.929 20.748 130.795 20.5714C131.662 20.3947 132.555 20.3956 133.42 20.574C134.286 20.7525 135.107 21.1048 135.833 21.6095C136.558 22.1143 137.174 22.7611 137.643 23.5107C138.111 24.2603 138.423 25.0972 138.558 25.9707C138.694 26.8443 138.651 27.7362 138.432 28.5927C138.213 29.4491 137.823 30.2522 137.284 30.9534C136.746 31.6545 136.071 32.2392 135.3 32.6719V32.6719Z" fill="white"/>
</svg>
