<svg width="90" height="123" viewBox="0 0 90 123" fill="none" xmlns="http://www.w3.org/2000/svg">
<path d="M2.94431 80.314L15.056 2.35889C15.4557 -0.285609 19.0189 -0.885234 20.2604 1.47867L33.2946 25.9211L2.94431 80.314ZM89.0059 99.2329L77.4746 27.4816C77.3872 26.9803 77.1642 26.5124 76.8297 26.1288C76.4952 25.7452 76.0621 25.4606 75.5773 25.3057C75.0925 25.1508 74.5745 25.1317 74.0796 25.2503C73.5847 25.369 73.1318 25.6209 72.7699 25.9787L0 99.2291L40.2594 121.93C42.7809 123.352 45.8636 123.352 48.389 121.93L89.0059 99.2329ZM56.2956 36.6298L46.9668 18.7717C46.7305 18.3234 46.3764 17.9482 45.9425 17.6864C45.5087 17.4246 45.0116 17.2863 44.5049 17.2863C43.9981 17.2863 43.501 17.4246 43.0672 17.6864C42.6333 17.9482 42.2792 18.3234 42.0429 18.7717L1.10316 92.1643L56.2956 36.6298Z" fill="white"/>
</svg>
