<svg width="126" height="123" viewBox="0 0 126 123" fill="none" xmlns="http://www.w3.org/2000/svg">
<path d="M63 0C28.1925 0 0 28.2174 0 63.0556C0 90.9577 18.0337 114.525 43.0762 122.88C46.2262 123.431 47.4075 121.54 47.4075 119.884C47.4075 118.387 47.3288 113.421 47.3288 108.14C31.5 111.057 27.405 104.278 26.145 100.731C25.4362 98.9184 22.365 93.3222 19.6875 91.8247C17.4825 90.6424 14.3325 87.7261 19.6088 87.6472C24.57 87.5684 28.1138 92.2188 29.295 94.1104C34.965 103.648 44.0213 100.968 47.6438 99.3125C48.195 95.2139 49.8487 92.4552 51.66 90.8788C37.6425 89.3024 22.995 83.8639 22.995 59.7452C22.995 52.8879 25.4363 47.2129 29.4525 42.799C28.8225 41.2226 26.6175 34.7594 30.0825 26.0892C30.0825 26.0892 35.3588 24.434 47.4075 32.5524C52.4475 31.1337 57.8025 30.4243 63.1575 30.4243C68.5125 30.4243 73.8675 31.1337 78.9075 32.5524C90.9563 24.3552 96.2325 26.0892 96.2325 26.0892C99.6975 34.7594 97.4925 41.2226 96.8625 42.799C100.879 47.2129 103.32 52.809 103.32 59.7452C103.32 83.9427 88.5938 89.3024 74.5763 90.8788C76.86 92.8493 78.8288 96.6327 78.8288 102.544C78.8288 110.978 78.75 117.756 78.75 119.884C78.75 121.54 79.9313 123.51 83.0813 122.88C95.5885 118.655 106.457 110.61 114.156 99.8781C121.855 89.1462 125.998 76.2676 126 63.0556C126 28.2174 97.8075 0 63 0Z" fill="white"/>
</svg>
