<svg width="95" height="123" viewBox="0 0 95 123" fill="none" xmlns="http://www.w3.org/2000/svg">
<path d="M55.2188 0C61.8782 15.656 31.3405 25.2464 28.5 38.2954C25.9018 50.2704 46.5927 64.3178 46.6117 64.3178C43.453 59.3641 41.154 55.1863 38 47.46C32.6562 34.411 70.5613 22.6394 55.2188 0ZM75.4062 21.7358C75.4062 21.7358 48.7065 23.4154 47.3527 40.8078C46.7352 48.553 54.4018 52.6172 54.625 58.2569C54.815 62.8558 50.0223 66.6787 50.0223 66.6787C50.0223 66.6787 58.615 65.1316 61.3035 58.1055C64.2723 50.3083 55.518 44.9855 56.4062 38.7354C57.2613 32.7692 75.4062 21.7358 75.4062 21.7358V21.7358ZM81.9375 61.8007C79.135 61.673 75.981 62.7091 73.1785 64.7578C78.7075 63.5418 83.4242 66.9957 83.4242 70.97C83.4242 79.8791 70.6562 88.2678 70.6562 88.2678C70.6562 88.2678 90.3973 86.0677 90.3973 71.4148C90.3973 65.3681 86.5973 62.0231 81.9375 61.8007V61.8007ZM29.5402 61.9521C22.6527 62.1887 8.90625 63.3195 8.90625 68.6044C8.90625 75.9616 40.9307 76.5341 63.8305 72.0062C63.8305 72.0062 70.0625 67.6817 71.6965 66.092C56.6865 69.1958 22.4152 69.6784 22.4152 66.9768C22.4152 64.5023 33.3973 61.9521 33.3973 61.9521C33.3973 61.9521 31.8392 61.8764 29.5402 61.9521V61.9521ZM27.4598 75.5547C23.693 75.5547 18.107 78.4739 18.107 81.3175C18.107 87.0471 46.4645 91.4472 67.393 83.0917L60.116 78.6584C45.923 83.281 19.703 81.7433 27.4598 75.5547ZM31.0223 88.4145C25.8828 88.4145 22.5625 91.6507 22.5625 94.0353C22.5625 101.369 53.2713 102.093 65.4598 94.6267L57.741 89.5973C48.6495 93.5006 25.7735 94.0731 31.0223 88.4145ZM13.8035 95.0714C5.41975 94.9059 0 98.6909 0 101.866C0 118.775 85.9465 117.966 85.9465 100.683C85.9465 97.8204 82.5503 96.453 81.3438 95.8048C88.3595 112.327 11.134 111.035 11.134 101.274C11.134 99.06 16.8483 96.841 22.116 97.8771L17.6652 95.3601C16.3862 95.1746 15.096 95.0766 13.8035 95.0667V95.0714ZM95 106.455C81.9375 119.04 48.8775 123.549 15.5848 115.771C48.8728 129.634 94.8337 121.922 95 106.455Z" fill="white"/>
</svg>
