<svg width="202" height="123" viewBox="0 0 202 123" fill="none" xmlns="http://www.w3.org/2000/svg">
<path d="M166.523 36.0276C158.954 33.3853 152.274 28.6344 147.247 22.3196C141.707 15.2838 134.652 9.62566 126.623 5.77807C118.594 1.93048 109.803 -0.00465277 100.923 0.120709C88.9775 -0.736806 77.1515 2.99781 67.8002 10.5808C58.4489 18.1639 52.2584 29.0389 50.4615 41.0402C54.0006 35.0378 59.3272 30.3282 65.6746 27.5892C72.0221 24.8501 79.0631 24.2229 85.7846 25.7977C93.3406 28.5169 100.011 33.2955 105.061 39.608C110.631 46.5876 117.699 52.1873 125.727 55.9809C133.754 59.7745 142.529 61.6621 151.385 61.5C163.33 62.3575 175.156 58.6229 184.508 51.0399C193.859 43.4569 200.049 32.5818 201.846 20.5805C198.371 26.6547 193.062 31.4354 186.701 34.2169C180.341 36.9984 173.267 37.6332 166.523 36.0276ZM35.3231 86.9724C42.8918 89.6147 49.5726 94.3656 54.5994 100.68C60.1396 107.716 67.194 113.374 75.223 117.222C83.252 121.07 92.0429 123.005 100.923 122.879C112.869 123.737 124.695 120.002 134.046 112.419C143.397 104.836 149.588 93.9611 151.385 81.9598C147.846 87.9622 142.519 92.6718 136.172 95.4108C129.824 98.1499 122.783 98.7771 116.062 97.2023C108.506 94.4831 101.836 89.7045 96.7852 83.3919C91.1997 76.4297 84.129 70.8423 76.1052 67.0503C68.0814 63.2584 59.3135 61.3607 50.4615 61.5C38.5159 60.6425 26.69 64.3771 17.3386 71.9601C7.98733 79.5431 1.79686 90.4182 0 102.42C3.47485 96.3453 8.78443 91.5646 15.1449 88.7831C21.5053 86.0016 28.5795 85.3668 35.3231 86.9724Z" fill="white"/>
</svg>
